# xmcd
#
# Track frame offsets: 
#        150
#        26052
#        52068
#        82812
#        105657
#        125743
#        146134
#
# Disc length: 2232 seconds
#
# Revision: 0
# Processed by: cddbd v1.5.2PL0 Copyright (c) Steve Scherf et al.
# Submitted via: ExactAudioCopy v0.99pb4
#
DISCID=6008b607
DTITLE=Chocolate Milk - Friction
DYEAR=1982
DGENRE=funk
TTITLE0=Take It Off
TTITLE1=Who's Getting It Now
TTITLE2=Sweet Heat
TTITLE3=Friction
TTITLE4=Keep It Coming
TTITLE5=Don't Let Up
TTITLE6=Don't Make Me Wait
EXTD=
EXTT0=
EXTT1=
EXTT2=
EXTT3=
EXTT4=
EXTT5=
EXTT6=
PLAYORDER=
